<svg width="64" height="64" viewBox="0 0 64 64" fill="none" xmlns="http://www.w3.org/2000/svg">
<path d="M32 32C34.6371 32 37.215 31.218 39.4076 29.7529C41.6003 28.2878 43.3092 26.2054 44.3184 23.7691C45.3276 21.3328 45.5916 18.6519 45.0772 16.0654C44.5627 13.479 43.2928 11.1033 41.4281 9.23856C39.5634 7.37386 37.1876 6.10398 34.6012 5.58952C32.0148 5.07505 29.3339 5.33909 26.8976 6.34826C24.4612 7.35743 22.3788 9.06639 20.9138 11.259C19.4487 13.4517 18.6667 16.0296 18.6667 18.6667C18.6709 22.2016 20.077 25.5905 22.5766 28.0901C25.0762 30.5896 28.4651 31.9958 32 32ZM32 10.6667C33.5823 10.6667 35.129 11.1358 36.4446 12.0149C37.7602 12.8939 38.7856 14.1434 39.3911 15.6052C39.9966 17.067 40.155 18.6755 39.8463 20.2274C39.5376 21.7792 38.7757 23.2047 37.6569 24.3235C36.5381 25.4423 35.1126 26.2043 33.5607 26.5129C32.0089 26.8216 30.4004 26.6632 28.9386 26.0577C27.4767 25.4522 26.2273 24.4268 25.3483 23.1112C24.4692 21.7956 24 20.2489 24 18.6667C24 16.5449 24.8429 14.5101 26.3432 13.0098C27.8435 11.5095 29.8783 10.6667 32 10.6667Z" fill="black"/>
<path d="M55.9627 52.8933C54.8014 47.4952 51.7474 42.6905 47.3526 39.3478C42.9578 36.005 37.5122 34.3446 32 34.6667C26.4878 34.3446 21.0422 36.005 16.6474 39.3478C12.2526 42.6905 9.19859 47.4952 8.03733 52.8933L7.51733 56H56.4827L55.9627 52.8933ZM14.2613 50.6667C15.9813 46.6 20.5333 40 32 40C43.3627 40 47.9547 46.5947 49.7093 50.6667H14.2613Z" fill="black"/>
</svg>
