<svg width="24" height="24" viewBox="0 0 24 24" fill="none" xmlns="http://www.w3.org/2000/svg">
<path d="M3 3V7H2V9H3V15H2V17H3V21H21V3H3ZM19 19H5V17H6V15H5V9H6V7H5V5H19V19Z" fill="#9A9AB0"/>
<path d="M11 14.816V17H13V14.816C13.4182 14.6666 13.7981 14.4262 14.1122 14.1122C14.4262 13.7981 14.6666 13.4182 14.816 13H17V11H14.816C14.6666 10.5818 14.4262 10.2019 14.1122 9.88785C13.7981 9.5738 13.4182 9.3334 13 9.184V7H11V9.184C10.5818 9.3334 10.2019 9.5738 9.88785 9.88785C9.5738 10.2019 9.3334 10.5818 9.184 11H7V13H9.184C9.3334 13.4182 9.5738 13.7981 9.88785 14.1122C10.2019 14.4262 10.5818 14.6666 11 14.816ZM12 11C12.1978 11 12.3911 11.0586 12.5556 11.1685C12.72 11.2784 12.8482 11.4346 12.9239 11.6173C12.9996 11.8 13.0194 12.0011 12.9808 12.1951C12.9422 12.3891 12.847 12.5673 12.7071 12.7071C12.5673 12.847 12.3891 12.9422 12.1951 12.9808C12.0011 13.0194 11.8 12.9996 11.6173 12.9239C11.4346 12.8482 11.2784 12.72 11.1685 12.5556C11.0586 12.3911 11 12.1978 11 12C11 11.7348 11.1054 11.4804 11.2929 11.2929C11.4804 11.1054 11.7348 11 12 11Z" fill="#9A9AB0"/>
</svg>
